<mxfile host="app.diagrams.net" modified="2023-07-19T00:14:36.375Z" agent="Mozilla/5.0 (X11; Ubuntu; Linux x86_64; rv:109.0) Gecko/20100101 Firefox/114.0" version="21.6.2" etag="r5GF-mAKN6lTmOpxc4JH" type="github">
  <diagram name="Page-1" id="QauzFd3qYKdr8XljyGIz">
    <mxGraphModel>
      <root>
        <mxCell id="0" />
        <mxCell id="1" parent="0" />
      </root>
    </mxGraphModel>
  </diagram>
</mxfile>
